# xmcd CD database file
#
# Track frame offsets:
#	150
#	14246
#	30722
#	44719
#	59395
#	78569
#	96320
#	113137
#	130198
#	146681
#	162693
#	177099
#	192945
#	208597
#	220996
#	238233
#	253493
#	267601
#	280097
#	294185
#	308035
#	321966
#	337561
#
# Disc length: 4712 seconds
#
# Revision: 1
# Processed by: cddbd v1.5.2PL0 Copyright (c) Steve Scherf et al.
# Submitted via: CDex 1.78
#
DISCID=6d126617
DTITLE=Various Artist - Diamondback Records Vol 014
DYEAR=2015
DGENRE=Country
TTITLE0=B Jeff Stone - Somebody Done Sombody Wrong Song
TTITLE1=Ann Pascoe - Always Elvis
TTITLE2=Noel Parlane - Learn As You Go Kind Of Life
TTITLE3=The Long and Short Of It - Fifty Bucks And A Case Of Beer
TTITLE4=Gail Russell and Dwight Hall - Tear Stained Letter
TTITLE5=Mitch Snow - I'm Long Gone
TTITLE6=Wendy Ford - How Can You Say
TTITLE7=Chris Anderson - A Smile On His Face
TTITLE8=Nola Rose Shepherd - Miss Me
TTITLE9=Honky Tonk Dave - Song From Yesterday
TTITLE10=Jim Venable - For The Good Times
TTITLE11=John Dickie IV - Hey There Engineer
TTITLE12=Phillip Clarkson - The Silvery Gray Barn
TTITLE13=Rex Allen Jr - Questions
TTITLE14=Peter Trenholm - For A Minute There
TTITLE15=Peter Frew - Seein' My Father In Me
TTITLE16=Glenn Erickson - Alone In A Crowd
TTITLE17=Ann Pascoe - San Antonio Stroll
TTITLE18=Fraser Newcombe - Politics and Promises
TTITLE19=Phil Coley - Something Extra
TTITLE20=Gary Johnston - I Never Meant To Hurt You
TTITLE21=Ray R Jones - Lady In My Rear View Mirror
TTITLE22=Glenn Erickson - Like I Love You
EXTD=YEAR: 2015
EXTT0=
EXTT1=
EXTT2=
EXTT3=
EXTT4=
EXTT5=
EXTT6=
EXTT7=
EXTT8=
EXTT9=
EXTT10=
EXTT11=
EXTT12=
EXTT13=
EXTT14=
EXTT15=
EXTT16=
EXTT17=
EXTT18=
EXTT19=
EXTT20=
EXTT21=
EXTT22=
PLAYORDER=
